<mxfile host="app.diagrams.net" modified="2021-04-17T12:21:06.238Z" agent="5.0 (Windows NT 10.0; Win64; x64) AppleWebKit/537.36 (KHTML, like Gecko) Chrome/90.0.4430.72 Safari/537.36" etag="2IHFNYwi5JKjF9s2YyiW" version="14.6.1" type="github">
  <diagram id="9SjnBQGCKEw5g2mVxKEI" name="Page-1">
    <mxGraphModel dx="2129" dy="831" grid="1" gridSize="10" guides="1" tooltips="1" connect="1" arrows="1" fold="1" page="1" pageScale="1" pageWidth="827" pageHeight="1169" math="0" shadow="0">
      <root>
        <mxCell id="0" />
        <mxCell id="1" parent="0" />
        <mxCell id="1UcQ3Sz3F0J6C7WJ8FVs-1" value="" style="rounded=0;whiteSpace=wrap;html=1;labelBackgroundColor=#009999;labelBorderColor=#000000;strokeColor=none;fillColor=#67AB9F;fontColor=#000000;" parent="1" vertex="1">
          <mxGeometry x="50" y="40" width="1910" height="60" as="geometry" />
        </mxCell>
        <mxCell id="1UcQ3Sz3F0J6C7WJ8FVs-2" value="&lt;font style=&quot;font-size: 21px&quot;&gt;Step 4: Normalization -&amp;nbsp;&lt;/font&gt;&lt;span style=&quot;font-size: 21px&quot;&gt;4NF&lt;/span&gt;" style="text;html=1;strokeColor=none;fillColor=none;align=center;verticalAlign=middle;whiteSpace=wrap;rounded=0;labelBackgroundColor=none;fontColor=#000000;" parent="1" vertex="1">
          <mxGeometry x="70" y="60" width="1830" height="20" as="geometry" />
        </mxCell>
        <mxCell id="1UcQ3Sz3F0J6C7WJ8FVs-3" value="products" style="swimlane;fontStyle=0;childLayout=stackLayout;horizontal=1;startSize=26;fillColor=#dae8fc;horizontalStack=0;resizeParent=1;resizeParentMax=0;resizeLast=0;collapsible=1;marginBottom=0;strokeColor=#6c8ebf;" parent="1" vertex="1">
          <mxGeometry x="240" y="258" width="140" height="182" as="geometry" />
        </mxCell>
        <mxCell id="1UcQ3Sz3F0J6C7WJ8FVs-4" value="+ ProductID Int" style="text;align=left;verticalAlign=top;spacingLeft=4;spacingRight=4;overflow=hidden;rotatable=0;points=[[0,0.5],[1,0.5]];portConstraint=eastwest;fillColor=#d5e8d4;strokeColor=#82b366;" parent="1UcQ3Sz3F0J6C7WJ8FVs-3" vertex="1">
          <mxGeometry y="26" width="140" height="26" as="geometry" />
        </mxCell>
        <mxCell id="1UcQ3Sz3F0J6C7WJ8FVs-5" value="+ ProductName String" style="text;align=left;verticalAlign=top;spacingLeft=4;spacingRight=4;overflow=hidden;rotatable=0;points=[[0,0.5],[1,0.5]];portConstraint=eastwest;" parent="1UcQ3Sz3F0J6C7WJ8FVs-3" vertex="1">
          <mxGeometry y="52" width="140" height="26" as="geometry" />
        </mxCell>
        <mxCell id="1UcQ3Sz3F0J6C7WJ8FVs-6" value="+ ProductDescr String" style="text;align=left;verticalAlign=top;spacingLeft=4;spacingRight=4;overflow=hidden;rotatable=0;points=[[0,0.5],[1,0.5]];portConstraint=eastwest;" parent="1UcQ3Sz3F0J6C7WJ8FVs-3" vertex="1">
          <mxGeometry y="78" width="140" height="26" as="geometry" />
        </mxCell>
        <mxCell id="1UcQ3Sz3F0J6C7WJ8FVs-7" value="+ ProductPhoto String" style="text;align=left;verticalAlign=top;spacingLeft=4;spacingRight=4;overflow=hidden;rotatable=0;points=[[0,0.5],[1,0.5]];portConstraint=eastwest;" parent="1UcQ3Sz3F0J6C7WJ8FVs-3" vertex="1">
          <mxGeometry y="104" width="140" height="26" as="geometry" />
        </mxCell>
        <mxCell id="1UcQ3Sz3F0J6C7WJ8FVs-8" value="+ EAN Int" style="text;align=left;verticalAlign=top;spacingLeft=4;spacingRight=4;overflow=hidden;rotatable=0;points=[[0,0.5],[1,0.5]];portConstraint=eastwest;" parent="1UcQ3Sz3F0J6C7WJ8FVs-3" vertex="1">
          <mxGeometry y="130" width="140" height="26" as="geometry" />
        </mxCell>
        <mxCell id="1UcQ3Sz3F0J6C7WJ8FVs-9" value="+ProductPrice Int" style="text;align=left;verticalAlign=top;spacingLeft=4;spacingRight=4;overflow=hidden;rotatable=0;points=[[0,0.5],[1,0.5]];portConstraint=eastwest;" parent="1UcQ3Sz3F0J6C7WJ8FVs-3" vertex="1">
          <mxGeometry y="156" width="140" height="26" as="geometry" />
        </mxCell>
        <mxCell id="1UcQ3Sz3F0J6C7WJ8FVs-10" value="searches" style="swimlane;fontStyle=0;childLayout=stackLayout;horizontal=1;startSize=26;fillColor=#fff2cc;horizontalStack=0;resizeParent=1;resizeParentMax=0;resizeLast=0;collapsible=1;marginBottom=0;strokeColor=#d6b656;" parent="1" vertex="1">
          <mxGeometry x="40" y="548" width="150" height="104" as="geometry" />
        </mxCell>
        <mxCell id="1UcQ3Sz3F0J6C7WJ8FVs-102" value="+ SearchID String" style="text;align=left;verticalAlign=top;spacingLeft=4;spacingRight=4;overflow=hidden;rotatable=0;points=[[0,0.5],[1,0.5]];portConstraint=eastwest;fillColor=#d5e8d4;strokeColor=#82b366;" parent="1UcQ3Sz3F0J6C7WJ8FVs-10" vertex="1">
          <mxGeometry y="26" width="150" height="26" as="geometry" />
        </mxCell>
        <mxCell id="1UcQ3Sz3F0J6C7WJ8FVs-11" value="+ fk_product_id Int" style="text;align=left;verticalAlign=top;spacingLeft=4;spacingRight=4;overflow=hidden;rotatable=0;points=[[0,0.5],[1,0.5]];portConstraint=eastwest;fillColor=#e1d5e7;strokeColor=#9673a6;" parent="1UcQ3Sz3F0J6C7WJ8FVs-10" vertex="1">
          <mxGeometry y="52" width="150" height="26" as="geometry" />
        </mxCell>
        <mxCell id="1UcQ3Sz3F0J6C7WJ8FVs-103" value="+ SearchDate DATETIME" style="text;align=left;verticalAlign=top;spacingLeft=4;spacingRight=4;overflow=hidden;rotatable=0;points=[[0,0.5],[1,0.5]];portConstraint=eastwest;" parent="1UcQ3Sz3F0J6C7WJ8FVs-10" vertex="1">
          <mxGeometry y="78" width="150" height="26" as="geometry" />
        </mxCell>
        <mxCell id="1UcQ3Sz3F0J6C7WJ8FVs-12" value="buy" style="swimlane;fontStyle=0;childLayout=stackLayout;horizontal=1;startSize=26;fillColor=#fff2cc;horizontalStack=0;resizeParent=1;resizeParentMax=0;resizeLast=0;collapsible=1;marginBottom=0;strokeColor=#d6b656;" parent="1" vertex="1">
          <mxGeometry x="520" y="548" width="150" height="154" as="geometry" />
        </mxCell>
        <mxCell id="1UcQ3Sz3F0J6C7WJ8FVs-13" value="+ buy_ID String" style="text;align=left;verticalAlign=top;spacingLeft=4;spacingRight=4;overflow=hidden;rotatable=0;points=[[0,0.5],[1,0.5]];portConstraint=eastwest;fillColor=#d5e8d4;strokeColor=#82b366;" parent="1UcQ3Sz3F0J6C7WJ8FVs-12" vertex="1">
          <mxGeometry y="26" width="150" height="24" as="geometry" />
        </mxCell>
        <mxCell id="1UcQ3Sz3F0J6C7WJ8FVs-14" value="+ fk_product_id Int" style="text;align=left;verticalAlign=top;spacingLeft=4;spacingRight=4;overflow=hidden;rotatable=0;points=[[0,0.5],[1,0.5]];portConstraint=eastwest;fillColor=#e1d5e7;strokeColor=#9673a6;" parent="1UcQ3Sz3F0J6C7WJ8FVs-12" vertex="1">
          <mxGeometry y="50" width="150" height="26" as="geometry" />
        </mxCell>
        <mxCell id="1UcQ3Sz3F0J6C7WJ8FVs-15" value="+ fk_customer_id Int" style="text;align=left;verticalAlign=top;spacingLeft=4;spacingRight=4;overflow=hidden;rotatable=0;points=[[0,0.5],[1,0.5]];portConstraint=eastwest;fillColor=#e1d5e7;strokeColor=#9673a6;" parent="1UcQ3Sz3F0J6C7WJ8FVs-12" vertex="1">
          <mxGeometry y="76" width="150" height="26" as="geometry" />
        </mxCell>
        <mxCell id="1UcQ3Sz3F0J6C7WJ8FVs-17" value="+ DateOfBuy DATETIME" style="text;align=left;verticalAlign=top;spacingLeft=4;spacingRight=4;overflow=hidden;rotatable=0;points=[[0,0.5],[1,0.5]];portConstraint=eastwest;" parent="1UcQ3Sz3F0J6C7WJ8FVs-12" vertex="1">
          <mxGeometry y="102" width="150" height="26" as="geometry" />
        </mxCell>
        <mxCell id="1UcQ3Sz3F0J6C7WJ8FVs-108" value="+ FinalSum Int" style="text;align=left;verticalAlign=top;spacingLeft=4;spacingRight=4;overflow=hidden;rotatable=0;points=[[0,0.5],[1,0.5]];portConstraint=eastwest;" parent="1UcQ3Sz3F0J6C7WJ8FVs-12" vertex="1">
          <mxGeometry y="128" width="150" height="26" as="geometry" />
        </mxCell>
        <mxCell id="1UcQ3Sz3F0J6C7WJ8FVs-18" value="customers" style="swimlane;fontStyle=0;childLayout=stackLayout;horizontal=1;startSize=26;fillColor=#dae8fc;horizontalStack=0;resizeParent=1;resizeParentMax=0;resizeLast=0;collapsible=1;marginBottom=0;strokeColor=#6c8ebf;" parent="1" vertex="1">
          <mxGeometry x="240" y="748" width="160" height="196" as="geometry" />
        </mxCell>
        <mxCell id="1UcQ3Sz3F0J6C7WJ8FVs-19" value="+ CustomerID Int" style="text;align=left;verticalAlign=top;spacingLeft=4;spacingRight=4;overflow=hidden;rotatable=0;points=[[0,0.5],[1,0.5]];portConstraint=eastwest;fillColor=#d5e8d4;strokeColor=#82b366;" parent="1UcQ3Sz3F0J6C7WJ8FVs-18" vertex="1">
          <mxGeometry y="26" width="160" height="24" as="geometry" />
        </mxCell>
        <mxCell id="1UcQ3Sz3F0J6C7WJ8FVs-20" value="+ FirstName String" style="text;align=left;verticalAlign=top;spacingLeft=4;spacingRight=4;overflow=hidden;rotatable=0;points=[[0,0.5],[1,0.5]];portConstraint=eastwest;" parent="1UcQ3Sz3F0J6C7WJ8FVs-18" vertex="1">
          <mxGeometry y="50" width="160" height="26" as="geometry" />
        </mxCell>
        <mxCell id="1UcQ3Sz3F0J6C7WJ8FVs-21" value="+ FirstNameÂ String" style="text;align=left;verticalAlign=top;spacingLeft=4;spacingRight=4;overflow=hidden;rotatable=0;points=[[0,0.5],[1,0.5]];portConstraint=eastwest;" parent="1UcQ3Sz3F0J6C7WJ8FVs-18" vertex="1">
          <mxGeometry y="76" width="160" height="26" as="geometry" />
        </mxCell>
        <mxCell id="1UcQ3Sz3F0J6C7WJ8FVs-22" value="+ Address String" style="text;align=left;verticalAlign=top;spacingLeft=4;spacingRight=4;overflow=hidden;rotatable=0;points=[[0,0.5],[1,0.5]];portConstraint=eastwest;" parent="1UcQ3Sz3F0J6C7WJ8FVs-18" vertex="1">
          <mxGeometry y="102" width="160" height="26" as="geometry" />
        </mxCell>
        <mxCell id="1UcQ3Sz3F0J6C7WJ8FVs-23" value="+ Username String&#xa;(FirstName &amp; LastName)" style="text;align=left;verticalAlign=top;spacingLeft=4;spacingRight=4;overflow=hidden;rotatable=0;points=[[0,0.5],[1,0.5]];portConstraint=eastwest;" parent="1UcQ3Sz3F0J6C7WJ8FVs-18" vertex="1">
          <mxGeometry y="128" width="160" height="42" as="geometry" />
        </mxCell>
        <mxCell id="1UcQ3Sz3F0J6C7WJ8FVs-24" value="+ Email String" style="text;align=left;verticalAlign=top;spacingLeft=4;spacingRight=4;overflow=hidden;rotatable=0;points=[[0,0.5],[1,0.5]];portConstraint=eastwest;" parent="1UcQ3Sz3F0J6C7WJ8FVs-18" vertex="1">
          <mxGeometry y="170" width="160" height="26" as="geometry" />
        </mxCell>
        <mxCell id="1UcQ3Sz3F0J6C7WJ8FVs-25" value="" style="fontSize=12;html=1;endArrow=ERzeroToMany;endFill=1;exitX=0.536;exitY=1.013;exitDx=0;exitDy=0;rounded=0;exitPerimeter=0;entryX=-0.003;entryY=0.082;entryDx=0;entryDy=0;entryPerimeter=0;edgeStyle=orthogonalEdgeStyle;" parent="1" source="1UcQ3Sz3F0J6C7WJ8FVs-103" target="1UcQ3Sz3F0J6C7WJ8FVs-18" edge="1">
          <mxGeometry width="100" height="100" relative="1" as="geometry">
            <mxPoint x="236" y="623" as="sourcePoint" />
            <mxPoint x="230" y="778" as="targetPoint" />
          </mxGeometry>
        </mxCell>
        <mxCell id="1UcQ3Sz3F0J6C7WJ8FVs-26" value="" style="fontSize=12;html=1;endArrow=ERzeroToMany;endFill=1;startArrow=none;entryX=0.003;entryY=0.069;entryDx=0;entryDy=0;entryPerimeter=0;rounded=0;startFill=0;exitX=1;exitY=0;exitDx=0;exitDy=0;" parent="1" source="1UcQ3Sz3F0J6C7WJ8FVs-18" target="1UcQ3Sz3F0J6C7WJ8FVs-12" edge="1">
          <mxGeometry width="100" height="100" relative="1" as="geometry">
            <mxPoint x="460" y="550" as="sourcePoint" />
            <mxPoint x="500" y="638" as="targetPoint" />
          </mxGeometry>
        </mxCell>
        <mxCell id="1UcQ3Sz3F0J6C7WJ8FVs-27" value="" style="fontSize=12;html=1;endArrow=none;startArrow=ERoneToMany;rounded=0;startFill=0;endFill=0;entryX=0.134;entryY=0.011;entryDx=0;entryDy=0;entryPerimeter=0;" parent="1" target="1UcQ3Sz3F0J6C7WJ8FVs-12" edge="1">
          <mxGeometry width="100" height="100" relative="1" as="geometry">
            <mxPoint x="380" y="285" as="sourcePoint" />
            <mxPoint x="538" y="538" as="targetPoint" />
          </mxGeometry>
        </mxCell>
        <mxCell id="1UcQ3Sz3F0J6C7WJ8FVs-28" value="sells" style="swimlane;fontStyle=0;childLayout=stackLayout;horizontal=1;startSize=26;fillColor=#fff2cc;horizontalStack=0;resizeParent=1;resizeParentMax=0;resizeLast=0;collapsible=1;marginBottom=0;strokeColor=#d6b656;" parent="1" vertex="1">
          <mxGeometry x="520" y="188" width="140" height="102" as="geometry" />
        </mxCell>
        <mxCell id="1UcQ3Sz3F0J6C7WJ8FVs-29" value="+ sells_ID Int" style="text;align=left;verticalAlign=top;spacingLeft=4;spacingRight=4;overflow=hidden;rotatable=0;points=[[0,0.5],[1,0.5]];portConstraint=eastwest;fillColor=#d5e8d4;strokeColor=#82b366;" parent="1UcQ3Sz3F0J6C7WJ8FVs-28" vertex="1">
          <mxGeometry y="26" width="140" height="24" as="geometry" />
        </mxCell>
        <mxCell id="1UcQ3Sz3F0J6C7WJ8FVs-30" value="+ fk_product_id Int" style="text;align=left;verticalAlign=top;spacingLeft=4;spacingRight=4;overflow=hidden;rotatable=0;points=[[0,0.5],[1,0.5]];portConstraint=eastwest;fillColor=#e1d5e7;strokeColor=#9673a6;" parent="1UcQ3Sz3F0J6C7WJ8FVs-28" vertex="1">
          <mxGeometry y="50" width="140" height="26" as="geometry" />
        </mxCell>
        <mxCell id="1UcQ3Sz3F0J6C7WJ8FVs-31" value="+ fk_supplier_id Int" style="text;align=left;verticalAlign=top;spacingLeft=4;spacingRight=4;overflow=hidden;rotatable=0;points=[[0,0.5],[1,0.5]];portConstraint=eastwest;fillColor=#e1d5e7;strokeColor=#9673a6;" parent="1UcQ3Sz3F0J6C7WJ8FVs-28" vertex="1">
          <mxGeometry y="76" width="140" height="26" as="geometry" />
        </mxCell>
        <mxCell id="1UcQ3Sz3F0J6C7WJ8FVs-32" value="" style="edgeStyle=orthogonalEdgeStyle;fontSize=12;html=1;endArrow=none;rounded=0;exitX=0.579;exitY=-0.003;exitDx=0;exitDy=0;exitPerimeter=0;startArrow=ERoneToMany;startFill=0;endFill=0;" parent="1" source="1UcQ3Sz3F0J6C7WJ8FVs-3" edge="1">
          <mxGeometry width="100" height="100" relative="1" as="geometry">
            <mxPoint x="321" y="251" as="sourcePoint" />
            <mxPoint x="520" y="201" as="targetPoint" />
            <Array as="points">
              <mxPoint x="321" y="201" />
            </Array>
          </mxGeometry>
        </mxCell>
        <mxCell id="1UcQ3Sz3F0J6C7WJ8FVs-33" value="" style="fontSize=12;html=1;endArrow=ERoneToMany;rounded=0;exitX=1.003;exitY=0.18;exitDx=0;exitDy=0;exitPerimeter=0;entryX=0.009;entryY=0.113;entryDx=0;entryDy=0;entryPerimeter=0;" parent="1" source="1UcQ3Sz3F0J6C7WJ8FVs-28" target="1UcQ3Sz3F0J6C7WJ8FVs-34" edge="1">
          <mxGeometry width="100" height="100" relative="1" as="geometry">
            <mxPoint x="850" y="274.53200000000004" as="sourcePoint" />
            <mxPoint x="830" y="200" as="targetPoint" />
          </mxGeometry>
        </mxCell>
        <mxCell id="1UcQ3Sz3F0J6C7WJ8FVs-34" value="supplier" style="swimlane;fontStyle=0;childLayout=stackLayout;horizontal=1;startSize=26;fillColor=#dae8fc;horizontalStack=0;resizeParent=1;resizeParentMax=0;resizeLast=0;collapsible=1;marginBottom=0;strokeColor=#6c8ebf;" parent="1" vertex="1">
          <mxGeometry x="1070" y="188" width="140" height="154" as="geometry" />
        </mxCell>
        <mxCell id="1UcQ3Sz3F0J6C7WJ8FVs-35" value="+ SupplierID Int" style="text;align=left;verticalAlign=top;spacingLeft=4;spacingRight=4;overflow=hidden;rotatable=0;points=[[0,0.5],[1,0.5]];portConstraint=eastwest;fillColor=#d5e8d4;strokeColor=#82b366;" parent="1UcQ3Sz3F0J6C7WJ8FVs-34" vertex="1">
          <mxGeometry y="26" width="140" height="24" as="geometry" />
        </mxCell>
        <mxCell id="1UcQ3Sz3F0J6C7WJ8FVs-36" value="+ SupplierName String" style="text;align=left;verticalAlign=top;spacingLeft=4;spacingRight=4;overflow=hidden;rotatable=0;points=[[0,0.5],[1,0.5]];portConstraint=eastwest;" parent="1UcQ3Sz3F0J6C7WJ8FVs-34" vertex="1">
          <mxGeometry y="50" width="140" height="26" as="geometry" />
        </mxCell>
        <mxCell id="1UcQ3Sz3F0J6C7WJ8FVs-37" value="+Address String" style="text;align=left;verticalAlign=top;spacingLeft=4;spacingRight=4;overflow=hidden;rotatable=0;points=[[0,0.5],[1,0.5]];portConstraint=eastwest;" parent="1UcQ3Sz3F0J6C7WJ8FVs-34" vertex="1">
          <mxGeometry y="76" width="140" height="26" as="geometry" />
        </mxCell>
        <mxCell id="1UcQ3Sz3F0J6C7WJ8FVs-38" value="+ Email String" style="text;align=left;verticalAlign=top;spacingLeft=4;spacingRight=4;overflow=hidden;rotatable=0;points=[[0,0.5],[1,0.5]];portConstraint=eastwest;" parent="1UcQ3Sz3F0J6C7WJ8FVs-34" vertex="1">
          <mxGeometry y="102" width="140" height="26" as="geometry" />
        </mxCell>
        <mxCell id="1UcQ3Sz3F0J6C7WJ8FVs-39" value="+ Phone String" style="text;align=left;verticalAlign=top;spacingLeft=4;spacingRight=4;overflow=hidden;rotatable=0;points=[[0,0.5],[1,0.5]];portConstraint=eastwest;" parent="1UcQ3Sz3F0J6C7WJ8FVs-34" vertex="1">
          <mxGeometry y="128" width="140" height="26" as="geometry" />
        </mxCell>
        <mxCell id="1UcQ3Sz3F0J6C7WJ8FVs-40" value="successful" style="swimlane;fontStyle=0;childLayout=stackLayout;horizontal=1;startSize=26;fillColor=#fff2cc;horizontalStack=0;resizeParent=1;resizeParentMax=0;resizeLast=0;collapsible=1;marginBottom=0;strokeColor=#d6b656;" parent="1" vertex="1">
          <mxGeometry x="1070" y="405" width="140" height="102" as="geometry" />
        </mxCell>
        <mxCell id="1UcQ3Sz3F0J6C7WJ8FVs-41" value="+ successfull_ID Int" style="text;align=left;verticalAlign=top;spacingLeft=4;spacingRight=4;overflow=hidden;rotatable=0;points=[[0,0.5],[1,0.5]];portConstraint=eastwest;fillColor=#d5e8d4;strokeColor=#82b366;" parent="1UcQ3Sz3F0J6C7WJ8FVs-40" vertex="1">
          <mxGeometry y="26" width="140" height="24" as="geometry" />
        </mxCell>
        <mxCell id="1UcQ3Sz3F0J6C7WJ8FVs-42" value="+ fk_payment_id Int" style="text;align=left;verticalAlign=top;spacingLeft=4;spacingRight=4;overflow=hidden;rotatable=0;points=[[0,0.5],[1,0.5]];portConstraint=eastwest;fillColor=#e1d5e7;strokeColor=#9673a6;" parent="1UcQ3Sz3F0J6C7WJ8FVs-40" vertex="1">
          <mxGeometry y="50" width="140" height="26" as="geometry" />
        </mxCell>
        <mxCell id="1UcQ3Sz3F0J6C7WJ8FVs-43" value="+ fk_supplier_id Int" style="text;align=left;verticalAlign=top;spacingLeft=4;spacingRight=4;overflow=hidden;rotatable=0;points=[[0,0.5],[1,0.5]];portConstraint=eastwest;fillColor=#e1d5e7;strokeColor=#9673a6;" parent="1UcQ3Sz3F0J6C7WJ8FVs-40" vertex="1">
          <mxGeometry y="76" width="140" height="26" as="geometry" />
        </mxCell>
        <mxCell id="1UcQ3Sz3F0J6C7WJ8FVs-44" value="payment" style="swimlane;fontStyle=0;childLayout=stackLayout;horizontal=1;startSize=26;fillColor=#dae8fc;horizontalStack=0;resizeParent=1;resizeParentMax=0;resizeLast=0;collapsible=1;marginBottom=0;strokeColor=#6c8ebf;" parent="1" vertex="1">
          <mxGeometry x="827" y="548" width="173" height="162" as="geometry" />
        </mxCell>
        <mxCell id="1UcQ3Sz3F0J6C7WJ8FVs-45" value="+ PaymentID Int" style="text;align=left;verticalAlign=top;spacingLeft=4;spacingRight=4;overflow=hidden;rotatable=0;points=[[0,0.5],[1,0.5]];portConstraint=eastwest;fillColor=#d5e8d4;strokeColor=#82b366;" parent="1UcQ3Sz3F0J6C7WJ8FVs-44" vertex="1">
          <mxGeometry y="26" width="173" height="24" as="geometry" />
        </mxCell>
        <mxCell id="1UcQ3Sz3F0J6C7WJ8FVs-46" value="+ fk_payment_form_id Int" style="text;align=left;verticalAlign=top;spacingLeft=4;spacingRight=4;overflow=hidden;rotatable=0;points=[[0,0.5],[1,0.5]];portConstraint=eastwest;fillColor=#e1d5e7;strokeColor=#9673a6;" parent="1UcQ3Sz3F0J6C7WJ8FVs-44" vertex="1">
          <mxGeometry y="50" width="173" height="30" as="geometry" />
        </mxCell>
        <mxCell id="1UcQ3Sz3F0J6C7WJ8FVs-109" value="+ fk_buy_id Int" style="text;align=left;verticalAlign=top;spacingLeft=4;spacingRight=4;overflow=hidden;rotatable=0;points=[[0,0.5],[1,0.5]];portConstraint=eastwest;fillColor=#e1d5e7;strokeColor=#9673a6;" parent="1UcQ3Sz3F0J6C7WJ8FVs-44" vertex="1">
          <mxGeometry y="80" width="173" height="30" as="geometry" />
        </mxCell>
        <mxCell id="1UcQ3Sz3F0J6C7WJ8FVs-94" value="+ DatePayment DATE" style="text;align=left;verticalAlign=top;spacingLeft=4;spacingRight=4;overflow=hidden;rotatable=0;points=[[0,0.5],[1,0.5]];portConstraint=eastwest;" parent="1UcQ3Sz3F0J6C7WJ8FVs-44" vertex="1">
          <mxGeometry y="110" width="173" height="26" as="geometry" />
        </mxCell>
        <mxCell id="1UcQ3Sz3F0J6C7WJ8FVs-48" value="+ TimePayment DATETIME" style="text;align=left;verticalAlign=top;spacingLeft=4;spacingRight=4;overflow=hidden;rotatable=0;points=[[0,0.5],[1,0.5]];portConstraint=eastwest;" parent="1UcQ3Sz3F0J6C7WJ8FVs-44" vertex="1">
          <mxGeometry y="136" width="173" height="26" as="geometry" />
        </mxCell>
        <mxCell id="1UcQ3Sz3F0J6C7WJ8FVs-49" value="" style="fontSize=12;html=1;endArrow=ERoneToMany;startArrow=ERmandOne;exitX=1.007;exitY=0.063;exitDx=0;exitDy=0;exitPerimeter=0;entryX=0.014;entryY=0.08;entryDx=0;entryDy=0;entryPerimeter=0;rounded=0;startFill=0;endFill=0;" parent="1" source="1UcQ3Sz3F0J6C7WJ8FVs-12" target="1UcQ3Sz3F0J6C7WJ8FVs-44" edge="1">
          <mxGeometry width="100" height="100" relative="1" as="geometry">
            <mxPoint x="950" y="578" as="sourcePoint" />
            <mxPoint x="1050" y="478" as="targetPoint" />
          </mxGeometry>
        </mxCell>
        <mxCell id="1UcQ3Sz3F0J6C7WJ8FVs-50" value="" style="fontSize=12;html=1;endArrow=none;endFill=0;strokeColor=#000000;startArrow=ERmandOne;startFill=0;exitX=1;exitY=0;exitDx=0;exitDy=0;entryX=-0.006;entryY=0.074;entryDx=0;entryDy=0;entryPerimeter=0;" parent="1" source="1UcQ3Sz3F0J6C7WJ8FVs-44" target="1UcQ3Sz3F0J6C7WJ8FVs-40" edge="1">
          <mxGeometry width="100" height="100" relative="1" as="geometry">
            <mxPoint x="950" y="578" as="sourcePoint" />
            <mxPoint x="1080" y="388" as="targetPoint" />
          </mxGeometry>
        </mxCell>
        <mxCell id="1UcQ3Sz3F0J6C7WJ8FVs-51" value="" style="fontSize=12;html=1;endArrow=ERoneToMany;endFill=0;strokeColor=#000000;startArrow=none;startFill=0;exitX=0.457;exitY=-0.022;exitDx=0;exitDy=0;exitPerimeter=0;" parent="1" source="1UcQ3Sz3F0J6C7WJ8FVs-40" edge="1">
          <mxGeometry width="100" height="100" relative="1" as="geometry">
            <mxPoint x="977" y="585" as="sourcePoint" />
            <mxPoint x="1136" y="342" as="targetPoint" />
          </mxGeometry>
        </mxCell>
        <mxCell id="1UcQ3Sz3F0J6C7WJ8FVs-52" value="" style="edgeStyle=orthogonalEdgeStyle;fontSize=12;html=1;endArrow=ERoneToMany;strokeColor=#000000;rounded=0;endFill=0;entryX=-0.021;entryY=0.083;entryDx=0;entryDy=0;entryPerimeter=0;" parent="1" target="1UcQ3Sz3F0J6C7WJ8FVs-3" edge="1">
          <mxGeometry width="100" height="100" relative="1" as="geometry">
            <mxPoint x="120" y="548" as="sourcePoint" />
            <mxPoint x="720" y="478" as="targetPoint" />
            <Array as="points">
              <mxPoint x="120" y="271" />
            </Array>
          </mxGeometry>
        </mxCell>
        <mxCell id="1UcQ3Sz3F0J6C7WJ8FVs-53" value="creates_invoice_for" style="swimlane;fontStyle=0;childLayout=stackLayout;horizontal=1;startSize=26;fillColor=#fff2cc;horizontalStack=0;resizeParent=1;resizeParentMax=0;resizeLast=0;collapsible=1;marginBottom=0;strokeColor=#d6b656;" parent="1" vertex="1">
          <mxGeometry x="827" y="788" width="193" height="206" as="geometry" />
        </mxCell>
        <mxCell id="1UcQ3Sz3F0J6C7WJ8FVs-54" value="+ creates_invoice_ID String" style="text;align=left;verticalAlign=top;spacingLeft=4;spacingRight=4;overflow=hidden;rotatable=0;points=[[0,0.5],[1,0.5]];portConstraint=eastwest;fillColor=#d5e8d4;strokeColor=#82b366;" parent="1UcQ3Sz3F0J6C7WJ8FVs-53" vertex="1">
          <mxGeometry y="26" width="193" height="24" as="geometry" />
        </mxCell>
        <mxCell id="1UcQ3Sz3F0J6C7WJ8FVs-55" value="+ fk_payment_id Int" style="text;align=left;verticalAlign=top;spacingLeft=4;spacingRight=4;overflow=hidden;rotatable=0;points=[[0,0.5],[1,0.5]];portConstraint=eastwest;fillColor=#e1d5e7;strokeColor=#9673a6;" parent="1UcQ3Sz3F0J6C7WJ8FVs-53" vertex="1">
          <mxGeometry y="50" width="193" height="26" as="geometry" />
        </mxCell>
        <mxCell id="1UcQ3Sz3F0J6C7WJ8FVs-56" value="+ fk_customer_id Int" style="text;align=left;verticalAlign=top;spacingLeft=4;spacingRight=4;overflow=hidden;rotatable=0;points=[[0,0.5],[1,0.5]];portConstraint=eastwest;fillColor=#e1d5e7;strokeColor=#9673a6;" parent="1UcQ3Sz3F0J6C7WJ8FVs-53" vertex="1">
          <mxGeometry y="76" width="193" height="26" as="geometry" />
        </mxCell>
        <mxCell id="1UcQ3Sz3F0J6C7WJ8FVs-98" value="+ fk_payment_form_id Int" style="text;align=left;verticalAlign=top;spacingLeft=4;spacingRight=4;overflow=hidden;rotatable=0;points=[[0,0.5],[1,0.5]];portConstraint=eastwest;fillColor=#e1d5e7;strokeColor=#9673a6;" parent="1UcQ3Sz3F0J6C7WJ8FVs-53" vertex="1">
          <mxGeometry y="102" width="193" height="26" as="geometry" />
        </mxCell>
        <mxCell id="ExpSBsA_ioX1gbseFm7L-17" value="+ fk_famazon_contact_id String" style="text;align=left;verticalAlign=top;spacingLeft=4;spacingRight=4;overflow=hidden;rotatable=0;points=[[0,0.5],[1,0.5]];portConstraint=eastwest;fillColor=#e1d5e7;strokeColor=#9673a6;" parent="1UcQ3Sz3F0J6C7WJ8FVs-53" vertex="1">
          <mxGeometry y="128" width="193" height="26" as="geometry" />
        </mxCell>
        <mxCell id="1UcQ3Sz3F0J6C7WJ8FVs-57" value="+ InvoiceID Int" style="text;align=left;verticalAlign=top;spacingLeft=4;spacingRight=4;overflow=hidden;rotatable=0;points=[[0,0.5],[1,0.5]];portConstraint=eastwest;" parent="1UcQ3Sz3F0J6C7WJ8FVs-53" vertex="1">
          <mxGeometry y="154" width="193" height="26" as="geometry" />
        </mxCell>
        <mxCell id="1UcQ3Sz3F0J6C7WJ8FVs-58" value="+ InvoiceDate DATE" style="text;align=left;verticalAlign=top;spacingLeft=4;spacingRight=4;overflow=hidden;rotatable=0;points=[[0,0.5],[1,0.5]];portConstraint=eastwest;" parent="1UcQ3Sz3F0J6C7WJ8FVs-53" vertex="1">
          <mxGeometry y="180" width="193" height="26" as="geometry" />
        </mxCell>
        <mxCell id="1UcQ3Sz3F0J6C7WJ8FVs-59" value="" style="fontSize=12;html=1;endArrow=none;startArrow=ERmandOne;strokeColor=#000000;entryX=0.25;entryY=1.006;entryDx=0;entryDy=0;entryPerimeter=0;exitX=0.293;exitY=0.005;exitDx=0;exitDy=0;exitPerimeter=0;endFill=0;" parent="1" source="1UcQ3Sz3F0J6C7WJ8FVs-53" target="1UcQ3Sz3F0J6C7WJ8FVs-48" edge="1">
          <mxGeometry width="100" height="100" relative="1" as="geometry">
            <mxPoint x="870" y="858" as="sourcePoint" />
            <mxPoint x="970" y="758" as="targetPoint" />
          </mxGeometry>
        </mxCell>
        <mxCell id="1UcQ3Sz3F0J6C7WJ8FVs-60" value="" style="fontSize=12;html=1;endArrow=ERmandOne;startArrow=ERmandOne;strokeColor=#000000;entryX=0.25;entryY=1.006;entryDx=0;entryDy=0;entryPerimeter=0;exitX=0.293;exitY=0.005;exitDx=0;exitDy=0;exitPerimeter=0;endFill=0;dashed=1;" parent="1" edge="1">
          <mxGeometry width="100" height="100" relative="1" as="geometry">
            <mxPoint x="870.6999999999998" y="1070.6100000000001" as="sourcePoint" />
            <mxPoint x="870" y="967.9960000000001" as="targetPoint" />
          </mxGeometry>
        </mxCell>
        <mxCell id="1UcQ3Sz3F0J6C7WJ8FVs-61" value="famazon_contact" style="swimlane;fontStyle=0;childLayout=stackLayout;horizontal=1;startSize=26;fillColor=#dae8fc;horizontalStack=0;resizeParent=1;resizeParentMax=0;resizeLast=0;collapsible=1;marginBottom=0;strokeColor=#6c8ebf;" parent="1" vertex="1">
          <mxGeometry x="815.5" y="1068" width="173" height="154" as="geometry" />
        </mxCell>
        <mxCell id="1UcQ3Sz3F0J6C7WJ8FVs-62" value="+ FamazonContactID Int" style="text;align=left;verticalAlign=top;spacingLeft=4;spacingRight=4;overflow=hidden;rotatable=0;points=[[0,0.5],[1,0.5]];portConstraint=eastwest;fillColor=#d5e8d4;strokeColor=#82b366;" parent="1UcQ3Sz3F0J6C7WJ8FVs-61" vertex="1">
          <mxGeometry y="26" width="173" height="24" as="geometry" />
        </mxCell>
        <mxCell id="1UcQ3Sz3F0J6C7WJ8FVs-63" value="+ FamazonName String" style="text;align=left;verticalAlign=top;spacingLeft=4;spacingRight=4;overflow=hidden;rotatable=0;points=[[0,0.5],[1,0.5]];portConstraint=eastwest;" parent="1UcQ3Sz3F0J6C7WJ8FVs-61" vertex="1">
          <mxGeometry y="50" width="173" height="26" as="geometry" />
        </mxCell>
        <mxCell id="1UcQ3Sz3F0J6C7WJ8FVs-64" value="+ Famazon Address String" style="text;align=left;verticalAlign=top;spacingLeft=4;spacingRight=4;overflow=hidden;rotatable=0;points=[[0,0.5],[1,0.5]];portConstraint=eastwest;" parent="1UcQ3Sz3F0J6C7WJ8FVs-61" vertex="1">
          <mxGeometry y="76" width="173" height="26" as="geometry" />
        </mxCell>
        <mxCell id="1UcQ3Sz3F0J6C7WJ8FVs-65" value="+ Famazon Email String" style="text;align=left;verticalAlign=top;spacingLeft=4;spacingRight=4;overflow=hidden;rotatable=0;points=[[0,0.5],[1,0.5]];portConstraint=eastwest;" parent="1UcQ3Sz3F0J6C7WJ8FVs-61" vertex="1">
          <mxGeometry y="102" width="173" height="26" as="geometry" />
        </mxCell>
        <mxCell id="1UcQ3Sz3F0J6C7WJ8FVs-66" value="+ Famazon Phone String" style="text;align=left;verticalAlign=top;spacingLeft=4;spacingRight=4;overflow=hidden;rotatable=0;points=[[0,0.5],[1,0.5]];portConstraint=eastwest;" parent="1UcQ3Sz3F0J6C7WJ8FVs-61" vertex="1">
          <mxGeometry y="128" width="173" height="26" as="geometry" />
        </mxCell>
        <mxCell id="1UcQ3Sz3F0J6C7WJ8FVs-68" value="gives_to_delivery" style="swimlane;fontStyle=0;childLayout=stackLayout;horizontal=1;startSize=26;fillColor=#fff2cc;horizontalStack=0;resizeParent=1;resizeParentMax=0;resizeLast=0;collapsible=1;marginBottom=0;strokeColor=#d6b656;" parent="1" vertex="1">
          <mxGeometry x="1410" y="268" width="170" height="180" as="geometry" />
        </mxCell>
        <mxCell id="1UcQ3Sz3F0J6C7WJ8FVs-69" value="+Â gives_to_delivery_ID Int" style="text;align=left;verticalAlign=top;spacingLeft=4;spacingRight=4;overflow=hidden;rotatable=0;points=[[0,0.5],[1,0.5]];portConstraint=eastwest;fillColor=#d5e8d4;strokeColor=#82b366;" parent="1UcQ3Sz3F0J6C7WJ8FVs-68" vertex="1">
          <mxGeometry y="26" width="170" height="24" as="geometry" />
        </mxCell>
        <mxCell id="1UcQ3Sz3F0J6C7WJ8FVs-70" value="+ fk_supplier_id Int" style="text;align=left;verticalAlign=top;spacingLeft=4;spacingRight=4;overflow=hidden;rotatable=0;points=[[0,0.5],[1,0.5]];portConstraint=eastwest;fillColor=#e1d5e7;strokeColor=#9673a6;" parent="1UcQ3Sz3F0J6C7WJ8FVs-68" vertex="1">
          <mxGeometry y="50" width="170" height="26" as="geometry" />
        </mxCell>
        <mxCell id="1UcQ3Sz3F0J6C7WJ8FVs-71" value="+ fk_shipping_company_id Int" style="text;align=left;verticalAlign=top;spacingLeft=4;spacingRight=4;overflow=hidden;rotatable=0;points=[[0,0.5],[1,0.5]];portConstraint=eastwest;fillColor=#e1d5e7;strokeColor=#9673a6;" parent="1UcQ3Sz3F0J6C7WJ8FVs-68" vertex="1">
          <mxGeometry y="76" width="170" height="26" as="geometry" />
        </mxCell>
        <mxCell id="1UcQ3Sz3F0J6C7WJ8FVs-104" value="+ ParcelWeight Int" style="text;align=left;verticalAlign=top;spacingLeft=4;spacingRight=4;overflow=hidden;rotatable=0;points=[[0,0.5],[1,0.5]];portConstraint=eastwest;" parent="1UcQ3Sz3F0J6C7WJ8FVs-68" vertex="1">
          <mxGeometry y="102" width="170" height="26" as="geometry" />
        </mxCell>
        <mxCell id="1UcQ3Sz3F0J6C7WJ8FVs-105" value="+ ParcelDimensions Int" style="text;align=left;verticalAlign=top;spacingLeft=4;spacingRight=4;overflow=hidden;rotatable=0;points=[[0,0.5],[1,0.5]];portConstraint=eastwest;" parent="1UcQ3Sz3F0J6C7WJ8FVs-68" vertex="1">
          <mxGeometry y="128" width="170" height="26" as="geometry" />
        </mxCell>
        <mxCell id="1UcQ3Sz3F0J6C7WJ8FVs-106" value="+ ParcelUniqueCode Int" style="text;align=left;verticalAlign=top;spacingLeft=4;spacingRight=4;overflow=hidden;rotatable=0;points=[[0,0.5],[1,0.5]];portConstraint=eastwest;" parent="1UcQ3Sz3F0J6C7WJ8FVs-68" vertex="1">
          <mxGeometry y="154" width="170" height="26" as="geometry" />
        </mxCell>
        <mxCell id="1UcQ3Sz3F0J6C7WJ8FVs-72" value="" style="fontSize=12;html=1;endArrow=ERoneToMany;rounded=0;startArrow=none;startFill=0;endFill=0;" parent="1" edge="1">
          <mxGeometry width="100" height="100" relative="1" as="geometry">
            <mxPoint x="1480" y="450" as="sourcePoint" />
            <mxPoint x="1480.17" y="594" as="targetPoint" />
          </mxGeometry>
        </mxCell>
        <mxCell id="1UcQ3Sz3F0J6C7WJ8FVs-73" value="shipping_company" style="swimlane;fontStyle=0;childLayout=stackLayout;horizontal=1;startSize=26;fillColor=#dae8fc;horizontalStack=0;resizeParent=1;resizeParentMax=0;resizeLast=0;collapsible=1;marginBottom=0;strokeColor=#6c8ebf;" parent="1" vertex="1">
          <mxGeometry x="1415" y="594" width="225" height="154" as="geometry" />
        </mxCell>
        <mxCell id="1UcQ3Sz3F0J6C7WJ8FVs-74" value="+ ShippingCompanyID Int" style="text;align=left;verticalAlign=top;spacingLeft=4;spacingRight=4;overflow=hidden;rotatable=0;points=[[0,0.5],[1,0.5]];portConstraint=eastwest;fillColor=#d5e8d4;strokeColor=#82b366;" parent="1UcQ3Sz3F0J6C7WJ8FVs-73" vertex="1">
          <mxGeometry y="26" width="225" height="24" as="geometry" />
        </mxCell>
        <mxCell id="1UcQ3Sz3F0J6C7WJ8FVs-75" value="+ ShippingCompanyName String" style="text;align=left;verticalAlign=top;spacingLeft=4;spacingRight=4;overflow=hidden;rotatable=0;points=[[0,0.5],[1,0.5]];portConstraint=eastwest;" parent="1UcQ3Sz3F0J6C7WJ8FVs-73" vertex="1">
          <mxGeometry y="50" width="225" height="26" as="geometry" />
        </mxCell>
        <mxCell id="1UcQ3Sz3F0J6C7WJ8FVs-76" value="+ ShippingCompanyAddress String" style="text;align=left;verticalAlign=top;spacingLeft=4;spacingRight=4;overflow=hidden;rotatable=0;points=[[0,0.5],[1,0.5]];portConstraint=eastwest;" parent="1UcQ3Sz3F0J6C7WJ8FVs-73" vertex="1">
          <mxGeometry y="76" width="225" height="26" as="geometry" />
        </mxCell>
        <mxCell id="1UcQ3Sz3F0J6C7WJ8FVs-77" value="+ShippingCompanyEmail String" style="text;align=left;verticalAlign=top;spacingLeft=4;spacingRight=4;overflow=hidden;rotatable=0;points=[[0,0.5],[1,0.5]];portConstraint=eastwest;" parent="1UcQ3Sz3F0J6C7WJ8FVs-73" vertex="1">
          <mxGeometry y="102" width="225" height="26" as="geometry" />
        </mxCell>
        <mxCell id="1UcQ3Sz3F0J6C7WJ8FVs-78" value="+ShippingCompanyPhone String" style="text;align=left;verticalAlign=top;spacingLeft=4;spacingRight=4;overflow=hidden;rotatable=0;points=[[0,0.5],[1,0.5]];portConstraint=eastwest;" parent="1UcQ3Sz3F0J6C7WJ8FVs-73" vertex="1">
          <mxGeometry y="128" width="225" height="26" as="geometry" />
        </mxCell>
        <mxCell id="1UcQ3Sz3F0J6C7WJ8FVs-79" value="" style="fontSize=12;html=1;endArrow=none;rounded=0;exitX=0.994;exitY=0.082;exitDx=0;exitDy=0;exitPerimeter=0;startArrow=ERoneToMany;startFill=0;endFill=0;edgeStyle=orthogonalEdgeStyle;" parent="1" source="1UcQ3Sz3F0J6C7WJ8FVs-34" target="1UcQ3Sz3F0J6C7WJ8FVs-68" edge="1">
          <mxGeometry width="100" height="100" relative="1" as="geometry">
            <mxPoint x="1118.6000000000001" y="643.998" as="sourcePoint" />
            <mxPoint x="1390" y="647" as="targetPoint" />
            <Array as="points">
              <mxPoint x="1490" y="201" />
            </Array>
          </mxGeometry>
        </mxCell>
        <mxCell id="1UcQ3Sz3F0J6C7WJ8FVs-80" value="delivers_products_to" style="swimlane;fontStyle=0;childLayout=stackLayout;horizontal=1;startSize=26;fillColor=#fff2cc;horizontalStack=0;resizeParent=1;resizeParentMax=0;resizeLast=0;collapsible=1;marginBottom=0;strokeColor=#d6b656;" parent="1" vertex="1">
          <mxGeometry x="1415" y="988" width="195" height="154" as="geometry" />
        </mxCell>
        <mxCell id="1UcQ3Sz3F0J6C7WJ8FVs-81" value="+ delivers_products_to_ID String" style="text;align=left;verticalAlign=top;spacingLeft=4;spacingRight=4;overflow=hidden;rotatable=0;points=[[0,0.5],[1,0.5]];portConstraint=eastwest;fillColor=#d5e8d4;strokeColor=#82b366;" parent="1UcQ3Sz3F0J6C7WJ8FVs-80" vertex="1">
          <mxGeometry y="26" width="195" height="24" as="geometry" />
        </mxCell>
        <mxCell id="1UcQ3Sz3F0J6C7WJ8FVs-82" value="+ fk_shipping_company_id Int" style="text;align=left;verticalAlign=top;spacingLeft=4;spacingRight=4;overflow=hidden;rotatable=0;points=[[0,0.5],[1,0.5]];portConstraint=eastwest;fillColor=#e1d5e7;strokeColor=#9673a6;" parent="1UcQ3Sz3F0J6C7WJ8FVs-80" vertex="1">
          <mxGeometry y="50" width="195" height="26" as="geometry" />
        </mxCell>
        <mxCell id="1UcQ3Sz3F0J6C7WJ8FVs-83" value="+ fk_customer_id Int" style="text;align=left;verticalAlign=top;spacingLeft=4;spacingRight=4;overflow=hidden;rotatable=0;points=[[0,0.5],[1,0.5]];portConstraint=eastwest;fillColor=#e1d5e7;strokeColor=#9673a6;" parent="1UcQ3Sz3F0J6C7WJ8FVs-80" vertex="1">
          <mxGeometry y="76" width="195" height="26" as="geometry" />
        </mxCell>
        <mxCell id="1UcQ3Sz3F0J6C7WJ8FVs-84" value="+ DeliveryLink String" style="text;align=left;verticalAlign=top;spacingLeft=4;spacingRight=4;overflow=hidden;rotatable=0;points=[[0,0.5],[1,0.5]];portConstraint=eastwest;" parent="1UcQ3Sz3F0J6C7WJ8FVs-80" vertex="1">
          <mxGeometry y="102" width="195" height="26" as="geometry" />
        </mxCell>
        <mxCell id="1UcQ3Sz3F0J6C7WJ8FVs-85" value="+ DeliveryDate DATETIME" style="text;align=left;verticalAlign=top;spacingLeft=4;spacingRight=4;overflow=hidden;rotatable=0;points=[[0,0.5],[1,0.5]];portConstraint=eastwest;" parent="1UcQ3Sz3F0J6C7WJ8FVs-80" vertex="1">
          <mxGeometry y="128" width="195" height="26" as="geometry" />
        </mxCell>
        <mxCell id="1UcQ3Sz3F0J6C7WJ8FVs-86" value="" style="edgeStyle=orthogonalEdgeStyle;fontSize=12;html=1;endArrow=none;strokeColor=#000000;rounded=0;endFill=0;startArrow=ERoneToMany;startFill=0;entryX=-0.018;entryY=0.113;entryDx=0;entryDy=0;entryPerimeter=0;exitX=0.154;exitY=1.154;exitDx=0;exitDy=0;exitPerimeter=0;" parent="1" source="1UcQ3Sz3F0J6C7WJ8FVs-24" target="1UcQ3Sz3F0J6C7WJ8FVs-80" edge="1">
          <mxGeometry width="100" height="100" relative="1" as="geometry">
            <mxPoint x="450" y="988" as="sourcePoint" />
            <mxPoint x="1320" y="788" as="targetPoint" />
            <Array as="points">
              <mxPoint x="265" y="1005" />
            </Array>
          </mxGeometry>
        </mxCell>
        <mxCell id="1UcQ3Sz3F0J6C7WJ8FVs-87" value="" style="fontSize=12;html=1;endArrow=none;endFill=0;strokeColor=#000000;startArrow=ERoneToMany;startFill=0;exitX=0.381;exitY=0.003;exitDx=0;exitDy=0;exitPerimeter=0;" parent="1" source="1UcQ3Sz3F0J6C7WJ8FVs-80" edge="1">
          <mxGeometry width="100" height="100" relative="1" as="geometry">
            <mxPoint x="1380" y="888" as="sourcePoint" />
            <mxPoint x="1480" y="751" as="targetPoint" />
          </mxGeometry>
        </mxCell>
        <mxCell id="1UcQ3Sz3F0J6C7WJ8FVs-88" value="payment_form" style="swimlane;fontStyle=0;childLayout=stackLayout;horizontal=1;startSize=26;fillColor=#dae8fc;horizontalStack=0;resizeParent=1;resizeParentMax=0;resizeLast=0;collapsible=1;marginBottom=0;strokeColor=#6c8ebf;" parent="1" vertex="1">
          <mxGeometry x="520" y="782" width="190" height="128" as="geometry" />
        </mxCell>
        <mxCell id="1UcQ3Sz3F0J6C7WJ8FVs-89" value="+ PaymentFormID Int" style="text;align=left;verticalAlign=top;spacingLeft=4;spacingRight=4;overflow=hidden;rotatable=0;points=[[0,0.5],[1,0.5]];portConstraint=eastwest;fillColor=#d5e8d4;strokeColor=#82b366;" parent="1UcQ3Sz3F0J6C7WJ8FVs-88" vertex="1">
          <mxGeometry y="26" width="190" height="24" as="geometry" />
        </mxCell>
        <mxCell id="1UcQ3Sz3F0J6C7WJ8FVs-90" value="+ fk_customer_id Int" style="text;align=left;verticalAlign=top;spacingLeft=4;spacingRight=4;overflow=hidden;rotatable=0;points=[[0,0.5],[1,0.5]];portConstraint=eastwest;fillColor=#e1d5e7;strokeColor=#9673a6;" parent="1UcQ3Sz3F0J6C7WJ8FVs-88" vertex="1">
          <mxGeometry y="50" width="190" height="26" as="geometry" />
        </mxCell>
        <mxCell id="1UcQ3Sz3F0J6C7WJ8FVs-91" value="+ FormPayment String" style="text;align=left;verticalAlign=top;spacingLeft=4;spacingRight=4;overflow=hidden;rotatable=0;points=[[0,0.5],[1,0.5]];portConstraint=eastwest;" parent="1UcQ3Sz3F0J6C7WJ8FVs-88" vertex="1">
          <mxGeometry y="76" width="190" height="26" as="geometry" />
        </mxCell>
        <mxCell id="1UcQ3Sz3F0J6C7WJ8FVs-100" value="+ PaymentInstitutionName String" style="text;align=left;verticalAlign=top;spacingLeft=4;spacingRight=4;overflow=hidden;rotatable=0;points=[[0,0.5],[1,0.5]];portConstraint=eastwest;" parent="1UcQ3Sz3F0J6C7WJ8FVs-88" vertex="1">
          <mxGeometry y="102" width="190" height="26" as="geometry" />
        </mxCell>
        <mxCell id="1UcQ3Sz3F0J6C7WJ8FVs-95" value="" style="fontSize=12;html=1;endArrow=ERoneToMany;startArrow=ERmandOne;startFill=0;endFill=0;entryX=-0.009;entryY=0.135;entryDx=0;entryDy=0;entryPerimeter=0;exitX=0.998;exitY=0.081;exitDx=0;exitDy=0;exitPerimeter=0;" parent="1" source="1UcQ3Sz3F0J6C7WJ8FVs-18" target="1UcQ3Sz3F0J6C7WJ8FVs-88" edge="1">
          <mxGeometry width="100" height="100" relative="1" as="geometry">
            <mxPoint x="400" y="838" as="sourcePoint" />
            <mxPoint x="500" y="738" as="targetPoint" />
          </mxGeometry>
        </mxCell>
        <mxCell id="1UcQ3Sz3F0J6C7WJ8FVs-96" value="" style="fontSize=12;html=1;endArrow=ERoneToMany;startArrow=none;startFill=0;endFill=0;exitX=1;exitY=0;exitDx=0;exitDy=0;entryX=0;entryY=0.5;entryDx=0;entryDy=0;" parent="1" source="1UcQ3Sz3F0J6C7WJ8FVs-88" target="1UcQ3Sz3F0J6C7WJ8FVs-46" edge="1">
          <mxGeometry width="100" height="100" relative="1" as="geometry">
            <mxPoint x="660" y="705.996" as="sourcePoint" />
            <mxPoint x="830" y="608" as="targetPoint" />
          </mxGeometry>
        </mxCell>
        <mxCell id="1UcQ3Sz3F0J6C7WJ8FVs-97" value="" style="fontSize=12;html=1;endArrow=ERoneToMany;startArrow=none;startFill=0;endFill=0;entryX=0;entryY=0.5;entryDx=0;entryDy=0;exitX=1.005;exitY=0.095;exitDx=0;exitDy=0;exitPerimeter=0;" parent="1" source="1UcQ3Sz3F0J6C7WJ8FVs-88" target="1UcQ3Sz3F0J6C7WJ8FVs-98" edge="1">
          <mxGeometry width="100" height="100" relative="1" as="geometry">
            <mxPoint x="702" y="798" as="sourcePoint" />
            <mxPoint x="837" y="623" as="targetPoint" />
          </mxGeometry>
        </mxCell>
        <mxCell id="ExpSBsA_ioX1gbseFm7L-1" value="" style="verticalLabelPosition=bottom;verticalAlign=top;html=1;shape=mxgraph.basic.tick;fillColor=#60a917;strokeColor=#2D7600;fontColor=#ffffff;" parent="1" vertex="1">
          <mxGeometry x="180" y="738" width="85" height="100" as="geometry" />
        </mxCell>
        <mxCell id="ExpSBsA_ioX1gbseFm7L-2" value="" style="verticalLabelPosition=bottom;verticalAlign=top;html=1;shape=mxgraph.basic.tick;fillColor=#60a917;strokeColor=#2D7600;fontColor=#ffffff;" parent="1" vertex="1">
          <mxGeometry x="160" y="494" width="85" height="100" as="geometry" />
        </mxCell>
        <mxCell id="ExpSBsA_ioX1gbseFm7L-3" value="" style="verticalLabelPosition=bottom;verticalAlign=top;html=1;shape=mxgraph.basic.tick;fillColor=#60a917;strokeColor=#2D7600;fontColor=#ffffff;" parent="1" vertex="1">
          <mxGeometry x="360" y="215" width="85" height="100" as="geometry" />
        </mxCell>
        <mxCell id="ExpSBsA_ioX1gbseFm7L-10" value="" style="verticalLabelPosition=bottom;verticalAlign=top;html=1;shape=mxgraph.basic.tick;fillColor=#60a917;strokeColor=#2D7600;fontColor=#ffffff;" parent="1" vertex="1">
          <mxGeometry x="630" y="190" width="85" height="100" as="geometry" />
        </mxCell>
        <mxCell id="ExpSBsA_ioX1gbseFm7L-11" value="" style="verticalLabelPosition=bottom;verticalAlign=top;html=1;shape=mxgraph.basic.tick;fillColor=#60a917;strokeColor=#2D7600;fontColor=#ffffff;" parent="1" vertex="1">
          <mxGeometry x="1020" y="178" width="85" height="100" as="geometry" />
        </mxCell>
        <mxCell id="ExpSBsA_ioX1gbseFm7L-12" value="" style="verticalLabelPosition=bottom;verticalAlign=top;html=1;shape=mxgraph.basic.tick;fillColor=#60a917;strokeColor=#2D7600;fontColor=#ffffff;" parent="1" vertex="1">
          <mxGeometry x="610" y="448" width="85" height="100" as="geometry" />
        </mxCell>
        <mxCell id="ExpSBsA_ioX1gbseFm7L-15" value="" style="verticalLabelPosition=bottom;verticalAlign=top;html=1;shape=mxgraph.basic.tick;fillColor=#60a917;strokeColor=#2D7600;fontColor=#ffffff;" parent="1" vertex="1">
          <mxGeometry x="460" y="818" width="85" height="100" as="geometry" />
        </mxCell>
        <mxCell id="ExpSBsA_ioX1gbseFm7L-16" value="" style="verticalLabelPosition=bottom;verticalAlign=top;html=1;shape=mxgraph.basic.tick;fillColor=#60a917;strokeColor=#2D7600;fontColor=#ffffff;" parent="1" vertex="1">
          <mxGeometry x="770" y="608" width="85" height="100" as="geometry" />
        </mxCell>
        <mxCell id="ExpSBsA_ioX1gbseFm7L-20" value="" style="verticalLabelPosition=bottom;verticalAlign=top;html=1;shape=mxgraph.basic.tick;fillColor=#60a917;strokeColor=#2D7600;fontColor=#ffffff;" parent="1" vertex="1">
          <mxGeometry x="1010" y="358" width="85" height="100" as="geometry" />
        </mxCell>
        <mxCell id="ExpSBsA_ioX1gbseFm7L-22" value="" style="verticalLabelPosition=bottom;verticalAlign=top;html=1;shape=mxgraph.basic.tick;fillColor=#60a917;strokeColor=#2D7600;fontColor=#ffffff;" parent="1" vertex="1">
          <mxGeometry x="1010" y="738" width="85" height="100" as="geometry" />
        </mxCell>
        <mxCell id="ExpSBsA_ioX1gbseFm7L-23" value="" style="verticalLabelPosition=bottom;verticalAlign=top;html=1;shape=mxgraph.basic.no_symbol;fillColor=#a20025;strokeColor=#6F0000;fontColor=#ffffff;" parent="1" vertex="1">
          <mxGeometry x="750" y="1038" width="100" height="100" as="geometry" />
        </mxCell>
        <mxCell id="ExpSBsA_ioX1gbseFm7L-24" value="" style="verticalLabelPosition=bottom;verticalAlign=top;html=1;shape=mxgraph.basic.tick;fillColor=#60a917;strokeColor=#2D7600;fontColor=#ffffff;" parent="1" vertex="1">
          <mxGeometry x="1330" y="988" width="85" height="100" as="geometry" />
        </mxCell>
        <mxCell id="ExpSBsA_ioX1gbseFm7L-25" value="" style="verticalLabelPosition=bottom;verticalAlign=top;html=1;shape=mxgraph.basic.tick;fillColor=#60a917;strokeColor=#2D7600;fontColor=#ffffff;" parent="1" vertex="1">
          <mxGeometry x="1330" y="268" width="85" height="100" as="geometry" />
        </mxCell>
      </root>
    </mxGraphModel>
  </diagram>
</mxfile>
